<svg width="16" height="15" viewBox="0 0 16 15" fill="none" xmlns="http://www.w3.org/2000/svg">
<path d="M13.6286 10.9261C13.1773 10.4745 12.65 10.1059 12.0709 9.83717C12.8876 9.17552 13.4086 8.1659 13.4086 7.03369C13.4086 5.03609 11.7428 3.39727 9.74517 3.42792C7.77822 3.45857 6.19348 5.06133 6.19348 7.03369C6.19348 8.1659 6.71632 9.17552 7.53123 9.83717C6.95197 10.1057 6.42465 10.4743 5.97353 10.9261C4.98916 11.9123 4.43026 13.214 4.39421 14.6022C4.39372 14.6214 4.3971 14.6406 4.40413 14.6585C4.41116 14.6764 4.42171 14.6927 4.43515 14.7065C4.4486 14.7203 4.46466 14.7312 4.4824 14.7387C4.50013 14.7462 4.51919 14.75 4.53844 14.75H5.54805C5.62558 14.75 5.69048 14.6887 5.69228 14.6112C5.72654 13.5655 6.15022 12.5866 6.89481 11.8438C7.27583 11.4607 7.72904 11.1571 8.2282 10.9503C8.72737 10.7436 9.26258 10.638 9.80286 10.6395C10.9008 10.6395 11.9339 11.0667 12.7109 11.8438C13.4537 12.5866 13.8774 13.5655 13.9134 14.6112C13.9152 14.6887 13.9801 14.75 14.0577 14.75H15.0673C15.0865 14.75 15.1056 14.7462 15.1233 14.7387C15.1411 14.7312 15.1571 14.7203 15.1706 14.7065C15.184 14.6927 15.1946 14.6764 15.2016 14.6585C15.2086 14.6406 15.212 14.6214 15.2115 14.6022C15.1755 13.214 14.6166 11.9123 13.6286 10.9261ZM9.80286 9.34138C9.18627 9.34138 8.60574 9.1016 8.17125 8.6653C7.9532 8.44897 7.78095 8.19092 7.6648 7.90657C7.54864 7.62222 7.49095 7.31739 7.49517 7.01025C7.50058 6.41891 7.73675 5.84739 8.14961 5.42371C8.58231 4.98021 9.16103 4.73321 9.77942 4.726C10.3906 4.72059 10.9838 4.95857 11.42 5.38585C11.8672 5.82395 12.1124 6.40989 12.1124 7.03369C12.1124 7.65028 11.8726 8.229 11.4363 8.6653C11.2222 8.88038 10.9676 9.05087 10.6873 9.16692C10.4069 9.28297 10.1063 9.34227 9.80286 9.34138ZM5.28663 7.50965C5.27041 7.3528 5.26139 7.19415 5.26139 7.03369C5.26139 6.74703 5.28844 6.46758 5.33892 6.19535C5.35154 6.13045 5.31728 6.06374 5.25779 6.0367C5.0126 5.92672 4.78723 5.77528 4.59252 5.58417C4.36309 5.36171 4.18254 5.09386 4.06241 4.79772C3.94228 4.50158 3.8852 4.18365 3.89481 3.86422C3.91103 3.28549 4.1436 2.73561 4.54925 2.32095C4.99457 1.86482 5.59312 1.61602 6.22954 1.62323C6.80466 1.62864 7.35995 1.8504 7.78002 2.24343C7.92245 2.37684 8.04505 2.52468 8.14781 2.68333C8.18387 2.73922 8.25418 2.76266 8.31548 2.74102C8.63279 2.63105 8.96812 2.55352 9.31248 2.51747C9.41344 2.50665 9.47113 2.39847 9.42606 2.30833C8.84012 1.14908 7.643 0.348596 6.25839 0.326961C4.25899 0.296312 2.59312 1.93513 2.59312 3.93093C2.59312 5.06314 3.11416 6.07275 3.93086 6.73441C3.35755 6.99943 2.8293 7.36542 2.37137 7.82335C1.38339 8.80953 0.824494 10.1112 0.788436 11.5012C0.787955 11.5205 0.79133 11.5396 0.798363 11.5575C0.805395 11.5755 0.815943 11.5918 0.829384 11.6056C0.842825 11.6193 0.858888 11.6303 0.876627 11.6378C0.894365 11.6452 0.913419 11.6491 0.932667 11.6491H1.94409C2.02161 11.6491 2.08651 11.5878 2.08832 11.5103C2.12257 10.4646 2.54625 9.48561 3.29084 8.74282C3.82089 8.21278 4.46993 7.84499 5.17846 7.6665C5.24877 7.64847 5.29565 7.58177 5.28663 7.50965Z" fill="#FF6059"/>
</svg>
