<svg width="16" height="15" viewBox="0 0 16 15" fill="none" xmlns="http://www.w3.org/2000/svg">
<path d="M13.6286 10.9261C13.1773 10.4745 12.6501 10.1059 12.0709 9.83717C12.8876 9.17552 13.4087 8.1659 13.4087 7.03369C13.4087 5.03609 11.7428 3.39727 9.7452 3.42792C7.77825 3.45857 6.19352 5.06133 6.19352 7.03369C6.19352 8.1659 6.71635 9.17552 7.53126 9.83717C6.952 10.1057 6.42468 10.4743 5.97356 10.9261C4.98919 11.9123 4.43029 13.214 4.39424 14.6022C4.39376 14.6214 4.39713 14.6406 4.40416 14.6585C4.4112 14.6764 4.42174 14.6927 4.43518 14.7065C4.44863 14.7203 4.46469 14.7312 4.48243 14.7387C4.50016 14.7462 4.51922 14.75 4.53847 14.75H5.54808C5.62561 14.75 5.69051 14.6887 5.69231 14.6112C5.72657 13.5655 6.15025 12.5866 6.89484 11.8438C7.27586 11.4607 7.72907 11.1571 8.22824 10.9503C8.7274 10.7436 9.26261 10.638 9.80289 10.6395C10.9008 10.6395 11.9339 11.0667 12.7109 11.8438C13.4537 12.5866 13.8774 13.5655 13.9135 14.6112C13.9153 14.6887 13.9802 14.75 14.0577 14.75H15.0673C15.0866 14.75 15.1056 14.7462 15.1234 14.7387C15.1411 14.7312 15.1572 14.7203 15.1706 14.7065C15.184 14.6927 15.1946 14.6764 15.2016 14.6585C15.2087 14.6406 15.212 14.6214 15.2115 14.6022C15.1755 13.214 14.6166 11.9123 13.6286 10.9261ZM9.80289 9.34138C9.1863 9.34138 8.60578 9.1016 8.17128 8.6653C7.95323 8.44897 7.78098 8.19092 7.66483 7.90657C7.54867 7.62222 7.49098 7.31739 7.4952 7.01025C7.50061 6.41891 7.73678 5.84739 8.14965 5.42371C8.58234 4.98021 9.16106 4.73321 9.77945 4.726C10.3906 4.72059 10.9838 4.95857 11.4201 5.38585C11.8672 5.82395 12.1124 6.40989 12.1124 7.03369C12.1124 7.65028 11.8726 8.229 11.4363 8.6653C11.2223 8.88038 10.9677 9.05087 10.6873 9.16692C10.4069 9.28297 10.1063 9.34227 9.80289 9.34138ZM5.28666 7.50965C5.27044 7.3528 5.26142 7.19415 5.26142 7.03369C5.26142 6.74703 5.28847 6.46758 5.33895 6.19535C5.35157 6.13045 5.31731 6.06374 5.25782 6.0367C5.01263 5.92672 4.78727 5.77528 4.59255 5.58417C4.36312 5.36171 4.18257 5.09386 4.06244 4.79772C3.94231 4.50158 3.88523 4.18365 3.89484 3.86422C3.91106 3.28549 4.14364 2.73561 4.54928 2.32095C4.9946 1.86482 5.59315 1.61602 6.22957 1.62323C6.80469 1.62864 7.35998 1.8504 7.78005 2.24343C7.92248 2.37684 8.04508 2.52468 8.14784 2.68333C8.1839 2.73922 8.25421 2.76266 8.31551 2.74102C8.63282 2.63105 8.96815 2.55352 9.31251 2.51747C9.41347 2.50665 9.47116 2.39847 9.42609 2.30833C8.84015 1.14908 7.64303 0.348596 6.25842 0.326961C4.25902 0.296312 2.59315 1.93513 2.59315 3.93093C2.59315 5.06314 3.11419 6.07275 3.93089 6.73441C3.35758 6.99943 2.82933 7.36542 2.3714 7.82335C1.38342 8.80953 0.824524 10.1112 0.788467 11.5012C0.787986 11.5205 0.791361 11.5396 0.798393 11.5575C0.805426 11.5755 0.815973 11.5918 0.829415 11.6056C0.842856 11.6193 0.858919 11.6303 0.876657 11.6378C0.894395 11.6452 0.91345 11.6491 0.932697 11.6491H1.94412C2.02164 11.6491 2.08654 11.5878 2.08835 11.5103C2.1226 10.4646 2.54628 9.48561 3.29087 8.74282C3.82092 8.21278 4.46996 7.84499 5.17849 7.6665C5.2488 7.64847 5.29568 7.58177 5.28666 7.50965Z" fill="#FF6059"/>
</svg>
